<svg width="60" height="60" viewBox="0 0 60 60" fill="none" xmlns="http://www.w3.org/2000/svg">
<rect width="60" height="60" rx="18" fill="#02963A"/>
<path fill-rule="evenodd" clip-rule="evenodd" d="M29.9946 15C30.7963 15 31.4462 15.6499 31.4462 16.4516V43.5484C31.4462 44.3501 30.7963 45 29.9946 45C29.1929 45 28.543 44.3501 28.543 43.5484V16.4516C28.543 15.6499 29.1929 15 29.9946 15Z" fill="white"/>
<path fill-rule="evenodd" clip-rule="evenodd" d="M15 30.0063C15 29.2046 15.6499 28.5547 16.4516 28.5547H43.5484C44.3501 28.5547 45 29.2046 45 30.0063C45 30.808 44.3501 31.4579 43.5484 31.4579H16.4516C15.6499 31.4579 15 30.808 15 30.0063Z" fill="white"/>
</svg>
