<svg width="18" height="18" viewBox="0 0 18 18" fill="none" xmlns="http://www.w3.org/2000/svg">
<path d="M16.7468 16.7466C16.3859 17.1075 15.8009 17.1075 15.4401 16.7466L10.8463 12.1529C10.486 11.7926 9.91597 11.7699 9.47009 12.0166C9.19911 12.1665 8.91022 12.2965 8.60343 12.4066C7.99676 12.6244 7.35121 12.7333 6.66676 12.7333C4.97121 12.7333 3.53636 12.1459 2.36223 10.9712C1.1881 9.79642 0.60072 8.36158 0.600098 6.66664C0.600098 4.97109 1.18748 3.53624 2.36223 2.36211C3.53699 1.18798 4.97183 0.600598 6.66676 0.599976C8.36232 0.599976 9.79716 1.18735 10.9713 2.36211C12.1454 3.53686 12.7328 4.97171 12.7334 6.66664C12.7334 7.35109 12.6245 7.99664 12.4068 8.60331C12.2966 8.9101 12.1666 9.19898 12.0167 9.46997C11.7701 9.91584 11.7927 10.4859 12.153 10.8462L16.7468 15.44C17.1076 15.8008 17.1076 16.3858 16.7468 16.7466ZM6.66676 10.8666C7.83343 10.8666 8.82525 10.4582 9.64223 9.64118C10.4592 8.8242 10.8674 7.83269 10.8668 6.66664C10.8668 5.49998 10.4583 4.50815 9.6413 3.69118C8.82432 2.8742 7.83281 2.46602 6.66676 2.46664C5.5001 2.46664 4.50828 2.87513 3.6913 3.69211C2.87432 4.50909 2.46614 5.5006 2.46676 6.66664C2.46676 7.83331 2.87525 8.82513 3.69223 9.64211C4.50921 10.4591 5.50072 10.8673 6.66676 10.8666Z" fill="#02963A"/>
</svg>
