<svg width="20" height="20" viewBox="0 0 20 20" fill="none" xmlns="http://www.w3.org/2000/svg">
<circle cx="10" cy="10" r="10" fill="white"/>
<path d="M5.48152 5.48152C5.56471 5.39822 5.6635 5.33214 5.77224 5.28705C5.88099 5.24196 5.99755 5.21875 6.11528 5.21875C6.233 5.21875 6.34956 5.24196 6.45831 5.28705C6.56706 5.33214 6.66584 5.39822 6.74903 5.48152L10.0015 8.73279L13.254 5.48152C13.3372 5.3983 13.436 5.33228 13.5447 5.28724C13.6535 5.2422 13.77 5.21901 13.8877 5.21901C14.0054 5.21901 14.122 5.2422 14.2307 5.28724C14.3394 5.33228 14.4382 5.3983 14.5215 5.48152C14.6047 5.56475 14.6707 5.66355 14.7157 5.77229C14.7608 5.88103 14.784 5.99758 14.784 6.11528C14.784 6.23297 14.7608 6.34952 14.7157 6.45826C14.6707 6.567 14.6047 6.6658 14.5215 6.74903L11.2702 10.0015L14.5215 13.254C14.6895 13.422 14.784 13.65 14.784 13.8877C14.784 14.1254 14.6895 14.3534 14.5215 14.5215C14.3534 14.6895 14.1254 14.784 13.8877 14.784C13.65 14.784 13.422 14.6895 13.254 14.5215L10.0015 11.2702L6.74903 14.5215C6.58095 14.6895 6.35298 14.784 6.11528 14.784C5.87757 14.784 5.6496 14.6895 5.48152 14.5215C5.31344 14.3534 5.21901 14.1254 5.21901 13.8877C5.21901 13.65 5.31344 13.422 5.48152 13.254L8.73279 10.0015L5.48152 6.74903C5.39822 6.66584 5.33214 6.56706 5.28705 6.45831C5.24196 6.34956 5.21875 6.233 5.21875 6.11528C5.21875 5.99755 5.24196 5.88099 5.28705 5.77224C5.33214 5.6635 5.39822 5.56471 5.48152 5.48152Z" fill="#808080"/>
</svg>
